<svg viewBox="0 0 96 96" xmlns="http://www.w3.org/2000/svg" xmlns:xlink="http://www.w3.org/1999/xlink" id="Icons_Bell_M" overflow="hidden"><style>
.MsftOfcThm_Background1_Stroke_v2 {
 stroke:#FFFFFF; 
}
</style>
<g id="Icons"><path d="M77.69 63.144C73.163 57.176 66.963 49 66.963 34.171 66.963 27.213 62.963 20.721 57.063 18.048 56.349 17.7014 55.6071 17.4157 54.845 17.194 54.9198 16.7869 54.9586 16.3739 54.961 15.96 54.9755 12.1161 51.8712 8.9883 48.0273 8.97381 44.1834 8.95931 41.0556 12.0636 41.0411 15.9075 41.0395 16.3295 41.0763 16.7507 41.151 17.166 40.4095 17.3841 39.6895 17.6696 39 18.019 33.042 20.719 29.039 27.213 29.039 34.171 29.039 49.003 22.839 57.176 18.312 63.144 15.741 66.531 13.712 69.206 13.712 72.029 13.712 79.846 28.993 86.572 47.361 86.982L48.643 86.982C67.011 86.572 82.292 79.846 82.292 72.029 82.29 69.206 80.261 66.531 77.69 63.144ZM48 11C50.738 11.0033 52.9567 13.222 52.96 15.96 52.9581 16.2068 52.9381 16.4531 52.9 16.697 52.181 16.545 51.392 16.404 50.5 16.297 48.4232 16.0462 46.3214 16.0903 44.257 16.428 43.847 16.497 43.463 16.572 43.098 16.651 43.0641 16.4215 43.0457 16.19 43.043 15.958 43.0474 13.222 45.264 11.005 48 11ZM19.9 64.353C24.334 58.508 31.035 49.676 31.035 34.171 30.9683 28.0746 34.4152 22.4838 39.892 19.805 41.3764 19.106 42.9574 18.6341 44.582 18.405 45.6455 18.2276 46.7218 18.139 47.8 18.14 48.6248 18.1405 49.4488 18.1889 50.268 18.285 52.3118 18.4669 54.3103 18.9926 56.179 19.84 61.6223 22.5274 65.0397 28.1009 64.966 34.171 64.966 49.676 71.666 58.508 76.101 64.353 77.4184 65.9651 78.5897 67.6912 79.601 69.511 79.615 69.538 79.608 69.543 79.586 69.521 74.313 64.371 60.8 61.15 48 61.15 35.2 61.15 21.689 64.37 16.42 69.52 16.398 69.542 16.391 69.538 16.405 69.509 17.4147 67.69 18.5843 65.9646 19.9 64.353ZM52.063 66.22C52.6888 68.4708 51.3716 70.8027 49.1208 71.4286 48.3799 71.6346 47.5969 71.6347 46.856 71.429 45.4346 71.0424 44.3241 69.9322 43.937 68.511 43.31 66.2606 44.626 63.9279 46.8764 63.3009 47.6181 63.0942 48.4022 63.0939 49.144 63.3 50.5659 63.687 51.6765 64.798 52.063 66.22ZM48 84.993C31.4 84.753 18.625 79.314 16.152 73.9 16.652 69.217 27.841 64.151 43.326 63.283 41.0637 65.8644 41.3223 69.791 43.9037 72.0533 46.485 74.3157 50.4117 74.0571 52.674 71.4757 54.7287 69.1313 54.7287 65.6274 52.674 63.283 68.159 64.151 79.343 69.217 79.848 73.9 77.375 79.314 64.6 84.753 48 84.993Z" class="MsftOfcThm_Background1_Stroke_v2" stroke="#FFFFFF" stroke-width="3"/></g></svg>